<?xml version="1.0" encoding="utf-8"?>
<!-- Generator: Adobe Illustrator 16.0.0, SVG Export Plug-In . SVG Version: 6.00 Build 0)  -->
<!DOCTYPE svg PUBLIC "-//W3C//DTD SVG 1.1//EN" "http://www.w3.org/Graphics/SVG/1.1/DTD/svg11.dtd">
<svg version="1.1" id="Layer_1" xmlns="http://www.w3.org/2000/svg" xmlns:xlink="http://www.w3.org/1999/xlink" x="0px" y="0px"
	 width="44.16px" height="44.161px" viewBox="0 0 44.16 44.161" enable-background="new 0 0 44.16 44.161" xml:space="preserve">
<g>
	<path fill-rule="evenodd" clip-rule="evenodd" fill="#7F6227" d="M42.24,0H1.92H0v7.68V9.6v24.96v1.92v5.76v1.92h1.92h5.76H9.6
		h24.96h1.92h5.76h1.92v-1.92v-1.92v-1.92v-1.92v-1.92V9.6V7.68V5.76V3.84V1.92V0H42.24z M34.561,1.92v1.92H9.6V1.92H34.561z
		 M7.68,9.6v24.96H5.76V9.6H7.68z M5.76,7.68V5.76h1.92v1.92H5.76z M9.6,9.6h24.96v24.96H9.6V9.6z M7.68,36.481v1.92H5.76v-1.92
		H7.68z M9.6,36.481h24.96v1.92H9.6V36.481z M36.48,36.481h1.92v1.92h-1.92V36.481z M36.48,34.561V9.6h1.92v24.96H36.48z
		 M36.48,7.68V5.76h1.92v1.92H36.48z M34.561,7.68H9.6V5.76h24.96V7.68z M1.92,1.92h5.76v1.92H5.76H3.84v1.92v1.92H1.92V1.92z
		 M1.92,9.6h1.92v24.96H1.92V9.6z M1.92,42.241v-5.76h1.92v1.92v1.92h1.92h1.92v1.92H1.92z M9.6,42.241v-1.92h24.96v1.92H9.6z
		 M42.24,42.241h-5.76v-1.92h1.92h1.92h1.92C42.24,41.053,42.24,41.7,42.24,42.241z M42.24,38.401h-1.92c0-0.545,0-1.189,0-1.92
		h1.92C42.24,37.155,42.24,37.795,42.24,38.401z M42.24,34.561h-1.92c0-1.258,0-2.663,0-4.17c0-6.669,0-15.221,0-20.791h1.92
		C42.24,16.996,42.24,27.165,42.24,34.561z M42.24,7.68h-1.92c0-0.731,0-1.376,0-1.92h1.92C42.24,6.365,42.24,7.007,42.24,7.68z
		 M42.24,3.84h-1.92H38.4h-1.92V1.92h5.76C42.24,2.463,42.24,3.104,42.24,3.84z"/>
	<polygon fill-rule="evenodd" clip-rule="evenodd" fill="#7F6227" points="13.44,11.52 11.52,11.52 11.52,30.72 11.52,32.64 
		13.44,32.64 21.12,32.64 21.12,30.72 13.44,30.72 	"/>
	<polygon fill-rule="evenodd" clip-rule="evenodd" fill="#7F6227" points="15.36,13.44 15.36,26.88 15.36,28.8 17.28,28.8 
		21.12,28.8 21.12,26.88 17.28,26.88 17.28,21.12 19.2,21.12 19.2,19.2 17.28,19.2 17.28,13.44 21.12,13.44 21.12,11.52 
		15.36,11.52 	"/>
	<polygon fill-rule="evenodd" clip-rule="evenodd" fill="#7F6227" points="32.64,11.52 28.8,11.52 23.04,11.52 23.04,13.44 
		28.8,13.44 30.72,13.44 23.04,30.72 23.04,32.64 32.64,32.64 32.64,30.72 24.96,30.72 32.64,13.44 	"/>
</g>
</svg>
